<?xml version="1.0"?><svg width="546.317" height="525.5" xmlns="http://www.w3.org/2000/svg">

 <g>
  <title>Layer 1</title>
  <path stroke-width="3" fill-rule="evenodd" clip-rule="evenodd" fill="#000000" id="path5" d="m458.068207,245.125c32.122101,-0.895996 70.972626,26.842987 77.228485,59.287994c10.901306,56.533997 -70.280579,95.253998 -111.345001,108.178009c-67.536072,21.253998 -141.136047,15.285004 -210.898849,16.467987c-31.137711,0.527008 -74.210342,-1.473999 -102.384987,14.744019c-2.413757,1.389984 -17.987038,8.791992 -11.730164,11.815002c3.28299,1.584991 32.073875,-13.75 37.624931,-15.275024c26.571045,-7.306 54.094025,-8.592987 81.491974,-8.35199c46.223694,0.40799 91.500427,1.463013 137.375641,-3.85199c62.703613,-7.264008 124.496674,-22.027008 167.48468,-72.041016c19.740234,-22.970001 22.3302,-53.289001 4.127625,-78.789978c-8.232666,-11.536011 -19.850586,-20.237 -32.424377,-26.185013c-6.419281,-3.035004 -13.408569,-5.665009 -20.336792,-7.277008c-2.276947,-0.529999 -22.1698,-2.613998 -16.918976,0.818008c0.234283,0.154999 0.47052,0.307999 0.705811,0.460999"/>
  <path fill-rule="evenodd" clip-rule="evenodd" id="path7" d="m230.875,331.346985c69.195007,-1.893005 131.088013,-43.483002 155.407013,-108.960999c24.167999,-65.067001 3.561981,-140.807999 -50.223022,-184.684998c-53.514984,-43.658989 -132.137985,-50.818989 -191.444992,-14.01199c-59.145996,36.709999 -89.984997,106.811001 -76.032997,175.206005c15.793999,77.426987 84.446999,130.537003 162.293999,132.451981"/>
  <path fill-rule="evenodd" clip-rule="evenodd" fill="#7f00ff" id="path9" d="m230.875,323.334991c65.322998,-1.558014 125.67099,-41.304993 148.110992,-103.677002c22.497009,-62.533997 3.522003,-133.578003 -47.837006,-175.95599c-51.040985,-42.115 -125.859985,-47.748 -182.511993,-13.296c-56.470993,34.344 -85.723995,102.133001 -72.417992,166.851995c15.196999,73.921997 80.359993,124.076996 154.655998,126.076996"/>
  <path fill-rule="evenodd" clip-rule="evenodd" id="path11" d="m256.002991,339.187988c69.175995,-2.613007 131.069,-42.981995 155.371002,-108.994995c24.066986,-65.375 3.477997,-140.514999 -50.222015,-184.854012c-53.30899,-44.018982 -132.329971,-50.084981 -191.408981,-13.841982c-59.257996,36.351 -90.022995,107.146997 -76.067993,175.238993c15.973,77.942993 84.371994,129.821014 162.327988,132.451996"/>
  <path fill-rule="evenodd" clip-rule="evenodd" fill="#3f007f" id="path13" d="m256.002991,331.346985c65.029999,-1.681 125.851013,-41.610016 148.110992,-103.882004c22.350983,-62.524002 3.483002,-133.600014 -48.041016,-175.95599c-51.108978,-42.013991 -125.652969,-47.716991 -182.341965,-13.26199c-56.397003,34.276001 -85.767006,102.456001 -72.417,167.023003c15.240997,73.727005 80.547997,124.14299 154.688988,126.076981"/>
  <path fill-rule="evenodd" clip-rule="evenodd" fill="#FF7300" id="path15" d="m404.487,137.050003c-7.195007,103.595993 -103.697998,177.600998 -205.796997,155.193985c-11.427002,-2.506989 -22.274002,-6.240997 -33.143005,-10.365997c42.492004,33.404999 117.649994,40.131012 164.51001,15.104004c50.036987,-26.722992 69.985992,-84.192001 73.510986,-137.939987c0.479004,-7.332001 0.902008,-14.654007 0.919006,-21.992004"/>
  <path fill-rule="evenodd" clip-rule="evenodd" fill="#FFFFFF" id="path17" d="m161.013,259.479004c-46.415001,-74.184998 -5.585007,-186.126991 70.067001,-221.981003c6.668991,-3.162003 13.722,-5.516001 20.559006,-7.638c-16.353012,-2.133001 -40.875,8.846001 -54.229004,17.388c-26.345001,16.853996 -45.761002,35.282997 -58.320007,64.572998c-18.140999,42.309998 -6.666992,94.154999 13.911011,133.475998c2.523987,4.822998 5.097,9.576004 8.011993,14.182007"/>
  <path fill-rule="evenodd" clip-rule="evenodd" id="path19" d="m282.734985,349.381989c69.244019,-2.576996 131.011993,-43.040009 155.404999,-108.996002c24.080994,-65.10701 3.615997,-140.770004 -50.222015,-184.684006c-53.452972,-43.600981 -132.210968,-50.869981 -191.445969,-14.011982c-59.115005,36.785 -89.991997,106.761005 -76.031998,175.207005c15.897995,77.940002 84.380997,129.846985 162.294983,132.484985"/>
  <path fill-rule="evenodd" clip-rule="evenodd" fill="#7f00ff" id="path21" d="m282.734985,341.541992c65.182983,-2.10199 125.64801,-41.32901 148.109009,-103.884003c22.526001,-62.738007 3.355988,-133.255997 -48.040009,-175.75c-50.970978,-42.14299 -125.713989,-47.718989 -182.307983,-13.296989c-56.400009,34.304001 -85.713005,101.986 -72.419006,166.646996c15.220001,74.035004 80.352997,124.041016 154.65799,126.283997"/>
  <path fill-rule="evenodd" clip-rule="evenodd" id="path23" d="m307.863007,357.190002c68.994995,-2.152008 131.199005,-43.174011 155.373993,-108.792007c24.072998,-65.350998 3.524994,-140.572998 -50.226013,-184.853996c-53.428986,-44.015999 -132.372986,-50.095999 -191.580994,-13.841c-59.320999,36.326 -89.955994,107.101002 -76.066986,175.205006c15.839996,77.671005 84.622986,130.12999 162.5,132.281998"/>
  <path fill-rule="evenodd" clip-rule="evenodd" fill="#7f00ff" id="path25" d="m307.863007,349.381989c65.300018,-2.28299 125.419983,-40.984009 147.937988,-103.710999c22.456024,-62.550995 3.485016,-133.580994 -47.868988,-175.955994c-50.983002,-42.067007 -125.738983,-47.731997 -182.341003,-13.296997c-56.5,34.372002 -85.628998,102.116989 -72.418991,166.852997c15.182983,74.406006 80.440994,123.440002 154.690994,126.110992"/>
  <path fill-rule="evenodd" clip-rule="evenodd" fill="#3f007f" id="path27" d="m442.881012,158.494995c10.544006,91.77301 -84.947998,175.619019 -174.877014,155.94101c-8.924988,-1.95401 -17.317993,-5.318024 -25.843994,-8.387024c10.973999,13.098999 36.386993,19.529999 52.406006,22.571014c31.587006,5.998993 63.96701,1.278992 91.716003,-15.445007c47.485992,-28.618011 61.317017,-83.201996 58.574005,-135.384003c-0.33902,-6.436981 -1.105011,-12.909988 -1.975006,-19.29599"/>
  <path fill-rule="evenodd" clip-rule="evenodd" fill="#FFFFFF" id="path29" d="m200.121002,273.148987c-37.443008,-77.459 14.658997,-185.962006 93.626984,-212.262997c7.357025,-2.451 14.817017,-4.077 22.298004,-5.559002c-47.800995,-6.986 -98.322983,30.533005 -121.210983,68.783989c-24.282013,40.585999 -15.069,92.057999 -0.987,134.207016c1.684998,5.048004 3.838989,10.110992 6.272995,14.830994"/>
  <path fill-rule="evenodd" clip-rule="evenodd" fill="#000000" id="path31" d="m101.061996,449.093994c-31.147995,-1.972015 -71.083996,-0.063019 -91.170997,26.917999c-25.707,34.529022 57.310996,53.777008 77.958999,42.037018c6.401001,-3.640991 18.205002,-7.977051 4.653999,-5.644043c-10.292,1.77002 -17.271996,4.624023 -28.401001,3.988037c-17.758995,-1.014038 -46.307997,-4.53302 -54.041997,-23.82901c-0.141999,3.623993 0.259,-6.024017 0.171,-5.285004c0.907,-4.838013 2.952,-9.475006 5.83,-13.467987c-0.906,0.494995 6.471001,-4.029022 8.389,-5.251007c-0.136,0.102997 -0.261,0.216003 -0.375999,0.34198c11.056,-10.658997 28.015999,-14.132996 42.757,-15.442993c6.707001,-0.596008 13.475998,-0.681 20.218002,-0.748993c4.75,-0.046997 18.360001,2.166016 14.011993,-3.615997"/>
  <path fill-rule="evenodd" clip-rule="evenodd" fill="#000000" id="path33" d="m99.765999,511.565002c8.756004,-9.317993 15.542,-19.320007 15.820999,-32.55899c0.136002,-6.429016 -1.256996,-12.376007 -3.988998,-18.171997c-0.718002,-1.526001 -9.82,-15.553009 -9.82,-8.661011c0,3.980988 7.446999,10.334991 8.541,15.105011c1.32,5.757996 2.018997,11.222992 0.920998,17.097992c-1.095001,5.854004 -2.278999,6.062958 -6.904999,16.005981c-4.625999,9.943024 -27.952995,17.199005 -20.569,18.183014"/>
  <path fill-rule="evenodd" clip-rule="evenodd" fill="#000000" id="path35" d="m102.233002,464.174988c14.257996,-1.208984 14.796997,-17.092987 0,-17.286011c-14.958,-0.194977 -14.546005,16.310028 0,17.286011"/>
 </g>
</svg>